
<svg width="215px" height="50px" viewBox="0 0 215 50" version="1.1" xmlns="http://www.w3.org/2000/svg" xmlns:xlink="http://www.w3.org/1999/xlink">
    <g id="Page-1" stroke="none" stroke-width="1" fill="none" fill-rule="evenodd">
        <g id="logo" fill="#FFFFFE">
            <path d="M11.5271924,50 C1.96544284,50 -4.20847201,46.4251452 3.44134322,34.4331732 C11.7464215,21.4141491 29.685633,0 45.5972349,0 C67.3409203,0 49.6721953,10.7891556 45.8607947,17.5256893 C43.3516082,21.9599708 44.9880342,23.4954405 48.4737081,23.4954405 C55.1428799,23.4954405 68.5775043,17.8702912 72.6748032,16.1635595 C85.7438725,10.7190231 98.6860105,5.37197954 112.927765,3.56238679 C116.154555,3.15250105 119.551567,2.87127821 122.95845,2.87127821 C127.481393,2.87127821 132.021133,3.36688151 136.199647,4.71429215 C139.287211,5.71017424 142.033636,6.62449479 144.255366,9.13610562 C146.425145,11.5917836 144.151466,14.6949321 147.431244,16.999955 C148.504878,17.7547889 150.002771,18.0713378 151.784657,18.0711646 C160.498409,18.0701256 175.977786,10.4883649 181.552024,9.52018951 C184.710586,8.97159719 188.295139,8.56223094 191.912592,8.56223094 C198.105036,8.56223094 204.394453,9.76175716 208.803279,13.5154932 C219.977731,23.0266781 214.734241,38.1271667 203.419524,45.1276066 C201.073114,46.5792636 196.891137,48.7417702 193.413948,48.7417702 C192.146367,48.7417702 190.972297,48.4539671 190.014685,47.7391347 C185.927949,44.6855118 189.226776,40.5231022 189.192142,35.9788598 C189.117681,26.1334631 183.761632,22.7771448 176.78128,22.7771448 C168.363643,22.7771448 157.584012,27.6581965 150.854751,31.9300476 C143.841497,36.383031 134.431615,44.8576396 124.986406,44.8576396 C122.755153,44.8576396 120.520782,44.3842016 118.317061,43.2729905 C109.469105,38.811695 114.578218,32.4916274 116.340709,25.4693685 C118.063372,18.6064231 117.593224,15.4960016 111.71629,15.4960016 C110.604213,15.4960016 109.298017,15.607521 107.77692,15.8258843 C101.960594,16.6614139 95.6711771,19.7325266 90.1248186,21.7601363 C73.3018401,27.9103273 57.5367373,36.5357641 41.1340345,43.6416625 C35.9577335,45.8841722 21.7906137,50 11.5271924,50" id="Fill-1" fill-opacity="0.3"></path>
            <polyline id="Fill-2" points="13.5650189 31.496438 0 31.496438 0 18.5390612 13.064567 18.5390612 13.064567 20.4724682 2.14761428 20.4724682 2.14761428 23.8003872 9.73543581 23.8003872 9.73543581 25.733621 2.14761428 25.733621 2.14761428 29.5632041 13.5650189 29.5632041 13.5650189 31.496438"></polyline>
            <polyline id="Fill-3" points="34.2828645 18.5392344 27.303551 31.4966111 24.8336733 31.4966111 17.8543598 18.5392344 20.2532391 18.5392344 26.0685256 29.335663 31.8850242 18.5392344 34.2828645 18.5392344"></polyline>
            <polyline id="Fill-4" points="53.6827377 31.496438 40.1177188 31.496438 40.1177188 18.5390612 53.1821126 18.5390612 53.1821126 20.4724682 42.2651599 20.4724682 42.2651599 23.8003872 49.8531546 23.8003872 49.8531546 25.733621 42.2651599 25.733621 42.2651599 29.5632041 53.6827377 29.5632041 53.6827377 31.496438"></polyline>
            <path d="M82.4599379,24.8213785 C83.9389553,25.3218304 84.6795895,26.4136469 84.6795895,28.0966548 C84.6795895,30.363581 83.0448952,31.4966111 79.7756798,31.4966111 L69.4490526,31.4966111 L69.4490526,18.5392344 L79.9188887,18.5392344 C81.2311465,18.5392344 82.2632204,18.8616709 83.0140715,19.5053318 C83.7659616,20.1502049 84.1419067,21.0092852 84.1419067,22.0834387 C84.1419067,23.2637434 83.5805,24.1775444 82.4599379,24.8213785 L82.4599379,24.8213785 Z M79.9540415,23.9622981 C80.5502547,23.9622981 81.0488019,23.7912094 81.4484708,23.4493782 C81.8481397,23.1084128 82.0479741,22.691254 82.0479741,22.1987677 C82.0479741,21.6714749 81.8687465,21.2522382 81.5113303,20.9403648 C81.1539141,20.6281451 80.664718,20.4724682 80.0435688,20.4724682 L71.5964937,20.4724682 L71.5964937,23.9622981 L79.9540415,23.9622981 Z M79.7931696,29.5632041 C81.5823287,29.5632041 82.4774277,28.9730518 82.4774277,27.7927471 C82.4774277,26.526898 81.6966187,25.895532 80.133096,25.895532 L71.5964937,25.895532 L71.5964937,29.5632041 L79.7931696,29.5632041 L79.7931696,29.5632041 Z" id="Fill-5"></path>
            <path d="M106.637482,31.496438 L104.139725,31.496438 L100.633617,26.5577217 L94.0920693,26.5577217 L94.0920693,31.496438 L91.9456672,31.496438 L91.9456672,18.5390612 L102.163026,18.5390612 C103.52481,18.5390612 104.591863,18.9058284 105.367477,19.6402287 C106.142052,20.37359 106.530292,21.3675672 106.530292,22.6200825 C106.530292,23.718133 106.21409,24.6005908 105.581684,25.2681487 C104.996554,25.8892979 104.192194,26.2827328 103.165315,26.4494924 L106.637482,31.496438 Z M101.840763,24.6244879 C103.499008,24.6244879 104.32813,23.95693 104.32813,22.6211215 C104.32813,21.1883396 103.43407,20.4724682 101.645084,20.4724682 L94.0920693,20.4724682 L94.0920693,24.6244879 L101.840763,24.6244879 L101.840763,24.6244879 Z" id="Fill-6"></path>
            <path d="M128.07778,31.496438 L125.729465,31.496438 L124.235902,28.5971067 L115.508816,28.5971067 L114.015253,31.496438 L111.666938,31.496438 L118.521571,18.5390612 L121.223146,18.5390612 L128.07778,31.496438 Z M123.192572,26.6647387 L119.89236,20.3869238 L116.552146,26.6647387 L123.192572,26.6647387 L123.192572,26.6647387 Z" id="Fill-7"></path>
            <polyline id="Fill-8" points="148.800993 31.496438 146.12903 31.496438 136.237744 20.8710981 136.237744 31.496438 134.092208 31.496438 134.092208 18.5390612 136.757244 18.5390612 146.653725 29.1697692 146.653725 18.5390612 148.800993 18.5390612 148.800993 31.496438"></polyline>
            <path d="M168.076186,21.5817745 C166.154035,20.6032091 164.198982,20.114013 162.205833,20.114013 C160.882839,20.114013 159.86635,20.2693436 159.163293,20.5796584 C158.458504,20.889627 158.106976,21.3190806 158.106976,21.8680192 C158.106976,22.4408549 158.482747,22.8588795 159.234291,23.1215735 C159.771108,23.3120569 160.649064,23.442971 161.866426,23.5150084 C163.655239,23.6344934 164.834505,23.7292157 165.409418,23.800214 C167.031991,24.0154603 168.230305,24.4163414 169.006092,25.0002598 C169.781879,25.5853903 170.169773,26.4145128 170.169773,27.4876272 C170.169773,28.8606666 169.560226,29.9216594 168.344595,30.6735495 C167.127233,31.4252664 165.378248,31.8001725 163.099373,31.8001725 C159.797083,31.8001725 157.223825,31.0730452 155.386526,29.6177517 L156.569255,28.0604629 C158.597037,29.3015491 160.778939,29.9216594 163.118422,29.9216594 C164.633631,29.9216594 165.807702,29.7124739 166.644097,29.2954883 C167.442396,28.8895854 167.844143,28.3354517 167.844143,27.6308362 C167.844143,26.8077745 167.317716,26.2588358 166.268325,25.984886 C165.719387,25.8406381 164.240542,25.6924073 161.830061,25.5367304 C159.693183,25.3936947 158.195291,25.10745 157.338115,24.6778232 C156.335479,24.1773713 155.835027,23.3357808 155.835027,22.1542639 C155.835027,20.9379405 156.403014,19.9770381 157.544184,19.2736347 C158.683621,18.5688459 160.29234,18.2178369 162.366878,18.2178369 C165.158326,18.2178369 167.496078,18.8552638 169.381864,20.1323687 L168.076186,21.5817745" id="Fill-9"></path>
            <path d="M193.060688,24.9999134 C193.060688,27.1238039 192.187928,28.8417914 190.447601,30.1540492 C188.918539,31.2993742 187.022363,31.8720367 184.75561,31.8720367 C182.466345,31.8720367 180.556316,31.2933133 179.028985,30.1365593 C177.286927,28.8232625 176.41763,27.1113358 176.41763,24.9999134 C176.41763,22.9245097 177.299049,21.217778 179.06535,19.8817964 C180.615192,18.7127475 182.5131,18.1277901 184.75561,18.1277901 C187.011973,18.1277901 188.901222,18.7127475 190.428553,19.8817964 C192.182733,21.217778 193.060688,22.9245097 193.060688,24.9999134 M190.823373,24.9999134 C190.823373,23.4848773 190.179193,22.2560859 188.889101,21.3135392 C187.780833,20.5019066 186.402426,20.0961768 184.75561,20.0961768 C182.956407,20.0961768 181.486221,20.5585321 180.35371,21.4834158 C179.219468,22.4084727 178.654944,23.5806386 178.654944,24.9999134 C178.654944,26.467675 179.207346,27.6521357 180.317345,28.5524297 C181.427344,29.4537627 182.90792,29.902611 184.75561,29.902611 C186.592909,29.902611 188.064827,29.4504726 189.167899,28.5442909 C190.270971,27.6367238 190.823373,26.455207 190.823373,24.9999134" id="Fill-10"></path>
            <polyline id="Fill-11" points="215.000918 31.496438 212.328955 31.496438 202.435937 20.8710981 202.435937 31.496438 200.288669 31.496438 200.288669 18.5390612 202.957169 18.5390612 212.85365 29.1697692 212.85365 18.5390612 215.000918 18.5390612 215.000918 31.496438"></polyline>
            <polyline id="Fill-12" points="18.1624235 39.078545 22.5044071 39.078545 22.5044071 40.3965173 19.6663769 40.3965173 19.6663769 41.3186303 22.2332279 41.3186303 22.2332279 42.5675091 19.6663769 42.5675091 19.6663769 44.5054184 18.1624235 44.5054184 18.1624235 39.078545"></polyline>
            <path d="M36.8857342,41.8076533 L36.8857342,41.7917219 C36.8857342,40.2335673 38.1415396,38.9697963 39.8171013,38.9697963 C41.4919703,38.9697963 42.732537,40.2174628 42.732537,41.7766564 L42.732537,41.7917219 C42.732537,43.3509155 41.4756926,44.6146866 39.8011699,44.6146866 C38.1264741,44.6146866 36.8857342,43.3658079 36.8857342,41.8076533 M41.1965477,41.8076533 L41.1965477,41.7917219 C41.1965477,41.0081423 40.6308119,40.3270774 39.8011699,40.3270774 C38.9793204,40.3270774 38.4288233,40.9929036 38.4288233,41.7766564 L38.4288233,41.7917219 C38.4288233,42.5753016 38.9943859,43.2574055 39.8171013,43.2574055 C40.6458774,43.2574055 41.1965477,42.5914061 41.1965477,41.8076533" id="Fill-13"></path>
            <path d="M57.4132694,42.1248948 L57.4132694,39.0780255 L58.941293,39.0780255 L58.941293,42.0949369 C58.941293,42.8773044 59.3361132,43.2499593 59.9409848,43.2499593 C60.5456831,43.2499593 60.9405034,42.8925431 60.9405034,42.1328605 L60.9405034,39.0780255 L62.4685269,39.0780255 L62.4685269,42.0857591 C62.4685269,43.8388995 61.4679693,44.6063746 59.9248803,44.6063746 C58.3828302,44.6063746 57.4132694,43.822795 57.4132694,42.1248948" id="Fill-14"></path>
            <polyline id="Fill-15" points="77.3277943 39.078545 78.7311378 39.078545 80.9644696 41.946533 80.9644696 39.078545 82.4533575 39.078545 82.4533575 44.5054184 81.1352121 44.5054184 78.816509 41.5286816 78.816509 44.5054184 77.3277943 44.5054184 77.3277943 39.078545"></polyline>
            <path d="M97.3824111,39.078545 L99.4759974,39.078545 C101.413907,39.078545 102.538971,40.1946048 102.538971,41.7617641 L102.538971,41.7768296 C102.538971,43.343123 101.398841,44.5054184 99.4448273,44.5054184 L97.3824111,44.5054184 L97.3824111,39.078545 Z M99.4990285,43.1722074 C100.398284,43.1722074 100.996055,42.6759115 100.996055,41.7998608 L100.996055,41.7839294 C100.996055,40.9158444 100.398284,40.4115828 99.4990285,40.4115828 L98.8863645,40.4115828 L98.8863645,43.1722074 L99.4990285,43.1722074 L99.4990285,43.1722074 Z" id="Fill-16"></path>
            <path d="M118.770412,39.0395825 L120.219125,39.0395825 L122.529689,44.5055916 L120.918373,44.5055916 L120.522513,43.537243 L118.429793,43.537243 L118.041034,44.5055916 L116.459848,44.5055916 L118.770412,39.0395825 Z M120.088557,42.3657698 L119.48282,40.8226807 L118.870849,42.3657698 L120.088557,42.3657698 L120.088557,42.3657698 Z" id="Fill-17"></path>
            <polyline id="Fill-18" points="137.652517 40.3966904 136.023017 40.3966904 136.023017 39.0787182 140.785104 39.0787182 140.785104 40.3966904 139.155604 40.3966904 139.155604 44.5054184 137.652517 44.5054184 137.652517 40.3966904"></polyline>
            <polygon id="Fill-19" points="155.440207 44.5052452 156.953685 44.5052452 156.953685 39.0781986 155.440207 39.0781986"></polygon>
            <path d="M171.726542,41.8076533 L171.726542,41.7917219 C171.726542,40.2335673 172.983733,38.9697963 174.658255,38.9697963 C176.332778,38.9697963 177.572652,40.2174628 177.572652,41.7766564 L177.572652,41.7917219 C177.572652,43.3509155 176.317193,44.6146866 174.64267,44.6146866 C172.966416,44.6146866 171.726542,43.3658079 171.726542,41.8076533 M176.036663,41.8076533 L176.036663,41.7917219 C176.036663,41.0081423 175.472139,40.3270774 174.64267,40.3270774 C173.820128,40.3270774 173.269458,40.9929036 173.269458,41.7766564 L173.269458,41.7917219 C173.269458,42.5753016 173.835713,43.2574055 174.658255,43.2574055 C175.487724,43.2574055 176.036663,42.5914061 176.036663,41.8076533" id="Fill-20"></path>
            <polyline id="Fill-21" points="191.711719 39.078545 193.116101 39.078545 195.348221 41.946533 195.348221 39.078545 196.837455 39.078545 196.837455 44.5054184 195.519656 44.5054184 193.200953 41.5286816 193.200953 44.5054184 191.711719 44.5054184 191.711719 39.078545"></polyline>
            <polyline id="Fill-22" points="103.324629 6.08161696 103.324629 6.90814196 101.978257 6.90814196 101.978257 11.2357527 100.993804 11.2357527 100.993804 6.90814196 99.6463935 6.90814196 99.6463935 6.08161696 103.324629 6.08161696"></polyline>
            <polyline id="Fill-23" points="105.574411 11.2354064 105.574411 6.08958263 106.55696 6.08958263 106.55696 8.14247469 108.539892 8.14247469 108.539892 6.08958263 109.522441 6.08958263 109.522441 11.2354064 108.539892 11.2354064 108.539892 9.02631789 106.55696 9.02631789 106.55696 11.2354064 105.574411 11.2354064"></polyline>
            <polyline id="Fill-24" points="111.868677 11.2354064 111.868677 6.08958263 115.276599 6.08958263 115.276599 6.91506863 112.852265 6.91506863 112.852265 8.14247469 114.612505 8.14247469 114.612505 8.96813385 112.852265 8.96813385 112.852265 10.4078424 115.354005 10.4078424 115.354005 11.2354064 111.868677 11.2354064"></polyline>
        </g>
    </g>
</svg>