
<svg width="141px" height="65px" viewBox="0 0 141 65" version="1.1" xmlns="http://www.w3.org/2000/svg" xmlns:xlink="http://www.w3.org/1999/xlink">
    <g id="Page-1" stroke="none" stroke-width="1" fill="none" fill-rule="evenodd">
        <g id="Group" fill-rule="nonzero">
            <polygon id="Path" fill="#FEFFFF" points="0 0 140.913108 0 140.913108 65 0 65"></polygon>
            <path d="M27.3775405,12.4696613 C28.1165685,12.3854197 28.8680412,12.3969072 29.5917526,12.2083211 C30.180486,12.0704713 30.7002946,12.4208395 31.2134021,12.6429308 C33.2036082,13.1158321 35.1612666,13.7744477 36.9868189,14.7049337 C38.3547865,15.3769514 39.5667158,16.3150957 40.7604566,17.2522828 C41.032327,17.4485272 41.2170839,17.7835788 41.5684094,17.8515464 C42.028866,17.9759941 42.5122975,18.0832106 42.9114875,18.3598675 C43.0512518,18.4450663 43.1058174,18.6049337 43.1584683,18.7504418 C42.9804124,18.8164948 42.8033137,18.8825479 42.626215,18.9495582 C42.7487482,19.2980118 43.0091311,19.5612666 43.2532401,19.8283505 C44.163623,20.9349779 44.95243,22.1440353 45.5928571,23.4268041 C46.4448454,25.2724595 46.8545655,27.3603093 46.5549337,29.3830633 C46.8603093,29.6798233 47.1838733,29.9775405 47.3667158,30.3700295 C48.0492636,31.909352 48.1028719,33.7052283 47.5237113,35.2857143 C47.4949926,35.4283505 47.4155376,35.4781296 47.2853461,35.4350515 C47.0307069,34.7745214 47.0307069,33.9713549 46.4812224,33.4544183 C46.2122239,33.1605302 45.7421944,33.3232695 45.4617084,33.054271 C45.3162003,32.9231222 45.2061119,32.7613402 45.0921944,32.6053019 C44.843299,32.8781296 44.5877025,33.1547865 44.266053,33.341458 C43.9175994,33.5463181 43.4657585,33.4199558 43.1316642,33.6573638 C42.5783505,34.0354934 42.2069219,34.6041237 41.8115611,35.1315906 C41.7301915,35.2761414 41.563623,35.3019882 41.4142857,35.321134 C41.3597202,35.040648 41.326215,34.7515464 41.3999264,34.4720177 C41.652651,33.3366716 42.3553019,32.3784242 43.0675258,31.4852725 C43.7165685,30.6706186 44.1837261,29.5946244 45.226215,29.2069219 C44.9045655,28.1270987 44.4307069,27.0932253 43.8429308,26.1340206 C43.2580265,25.2466127 42.3811487,24.5755523 41.3970545,24.1840206 C39.9659057,23.6106038 38.4246686,23.4162739 36.9466127,23.0017673 C37.2060383,23.6680412 37.3754786,24.3678203 37.4587629,25.0781296 C37.4807806,25.3184094 37.4836524,25.630486 37.2452872,25.7692931 C36.8997054,25.8889543 36.5167894,25.7252577 36.2841679,25.4620029 C35.9203976,25.0771723 35.7882916,24.5506627 35.5537555,24.0902062 C35.3929308,23.7522828 35.0597938,23.5340206 34.9123711,23.1884389 C34.7783505,22.8830633 34.694109,22.5594993 34.6002946,22.2407216 C34.1637703,22.0741532 33.7377761,21.8836524 33.3079529,21.7027246 C33.6659794,22.6303387 34.0584683,23.5455081 34.3916053,24.4836524 C34.5428571,24.9259205 34.7477172,25.3768041 34.6902798,25.8573638 C34.6740059,26.1502946 34.3734168,26.405891 34.0795287,26.3513255 C33.6889543,26.2843152 33.3385862,26.0794551 33.0131075,25.8621502 C32.6981591,25.6352725 32.3659794,25.372975 32.2472754,24.9862297 C32.0988954,24.5075847 32.0203976,24.0002209 31.7715022,23.5579529 C31.592489,23.2104566 31.2899853,22.9519882 31.081296,22.6265096 C30.837187,22.2053019 30.69838,21.7266568 30.6505155,21.2441826 C30.6256259,20.7530928 30.1402798,20.4706922 30.0301915,20.0111929 C29.9976436,19.7862297 30.0263623,19.559352 30.0407216,19.3353461 C28.880486,18.1128866 27.9748895,16.6817378 26.9362297,15.3606775 C26.5581001,14.8657585 25.9502209,14.6187776 25.3509573,14.5259205 C24.9134757,14.4627393 24.4673785,14.5326215 24.0308542,14.4646539 C23.4737113,14.3201031 23.1070692,13.7562592 23.0381443,13.2067747 C22.9759205,13.0076583 23.1645066,12.8717231 23.3243741,12.8047128 C23.7111193,12.6362297 24.1447717,12.6888807 24.5477909,12.5902798 C24.8158321,12.5213549 25.0915317,12.4763623 25.3691458,12.5041237 C25.7539764,12.5510309 26.1196613,12.3605302 26.5035346,12.402651 C26.7945508,12.4351988 27.0836524,12.5069956 27.3775405,12.4696613 Z" id="Path" fill="#017FC3"></path>
            <path d="M18.694919,14.2961708 C19.6158321,13.8002946 20.6238586,13.4863034 21.641458,13.2613402 C22.0148012,13.1627393 22.5547128,13.4384389 22.4235641,13.8826215 C22.2301915,14.3028719 21.7046392,14.3612666 21.3351252,14.5613402 C21.9439617,14.6254786 22.558542,14.6436672 23.162592,14.7489691 C23.4861561,14.8025773 23.8011046,14.972975 23.9734168,15.260162 C24.0959499,15.4506627 24.1189249,15.7388071 23.9341679,15.8996318 C23.6929308,16.0097202 23.4153166,15.9618557 23.1587629,15.9608984 C22.0215022,15.8958027 20.8354197,15.6851988 19.7364507,16.0987482 C20.7119293,16.1054492 21.7027246,16.0939617 22.6552283,16.3313697 C23.0170839,16.4203976 23.2822533,16.7707658 23.3023564,17.137408 C23.3138439,17.4121502 23.0821797,17.705081 22.7873343,17.6581738 C22.2053019,17.5634021 21.6567747,17.2963181 21.0584683,17.2867452 C20.3337997,17.2704713 19.6091311,17.3930044 18.9189249,17.6122239 C19.6014728,17.7060383 20.2897644,17.764433 20.9665685,17.8936672 C21.5533873,18.008542 22.1679676,18.4163476 22.2560383,19.0491163 C22.284757,19.2721649 22.2100884,19.6244477 21.9229013,19.6072165 C21.6357143,19.595729 21.3705449,19.4722386 21.1005891,19.3908689 C20.2294551,19.0960236 19.2941826,19.0357143 18.3818851,19.1065538 C18.1195876,19.1065538 17.9233432,19.2970545 17.7203976,19.4349043 C17.2455817,19.7919735 16.708542,20.0504418 16.1896907,20.334757 C16.9804124,20.4151694 17.7539028,20.1902062 18.4948454,19.9413108 C18.9265832,19.7938881 19.4751105,19.7555965 19.8388807,20.0772459 C20.0648012,20.3079529 19.8953608,20.6564065 19.6732695,20.8210604 C18.8528719,21.4442563 17.7893225,21.5380707 16.8626657,21.9257732 C16.1025773,22.2359352 15.6469072,22.9921944 14.890648,23.3061856 C14.5747423,23.4583947 14.2148012,23.4478645 13.8854934,23.5531664 C13.3972754,23.7857879 13.1005155,24.2673049 12.8631075,24.7325479 C12.3318115,25.7463181 11.7335052,26.7294551 11.2969809,27.7891753 C11.0911635,27.8600147 10.8011046,27.9758468 10.657511,27.7384389 C10.4248895,27.3009573 10.244919,26.8328424 9.94528719,26.4346097 C9.65810015,25.9923417 9.25029455,25.6486745 8.95066274,25.2169367 C8.76303387,24.9728277 8.89705449,24.6607511 9.00235641,24.412813 C9.21487482,23.9648012 9.48100147,23.5445508 9.69734904,23.0974963 C10.8240795,20.9579529 12.2370398,18.916053 14.1410898,17.394919 C15.5617084,16.2298969 17.0627393,15.1472018 18.694919,14.2961708 Z" id="Path" fill="#69C2CE"></path>
            <path d="M23.7092047,17.3863034 C24.1935935,16.583137 25.1872607,16.1571429 26.1043446,16.2854197 C26.5810751,16.3840206 27.0807806,16.5362297 27.4292342,16.8942563 C27.8341679,17.3030191 28.0418999,17.8553756 28.2055965,18.3952872 C28.3214286,18.8643594 28.7110457,19.1802651 28.9484536,19.5842415 C29.2643594,20.0935199 29.5630339,20.7081001 29.3744477,21.3188513 C29.2710604,21.694109 29.0805596,22.1804124 28.6134021,22.1746686 C28.636377,21.8740795 28.7196613,21.5581738 28.6076583,21.2662003 C28.4650221,20.8717968 28.1682622,20.562592 27.8829897,20.2658321 C27.6417526,20.3146539 27.3583947,20.4218704 27.1420471,20.245729 C26.79838,20.0466127 26.7495582,19.6215758 26.5284242,19.3267305 C26.3379234,19.1027246 25.9588365,19.1649485 25.8181149,19.410972 C25.7415317,19.618704 25.8047128,19.8484536 25.9195876,20.0303387 C26.3656848,20.7722386 26.9860088,21.390648 27.6427099,21.9477909 C28.2094256,22.4455817 28.903461,22.7739323 29.4519882,23.2946981 C30.5308542,24.2960236 31.5063328,25.4859352 31.9466863,26.9132548 C32.2798233,27.9997791 32.2252577,29.2356406 31.6614138,30.2369661 C31.3445508,30.7807069 30.7673049,31.074595 30.2608984,31.4086892 C29.9603093,31.5819588 29.8779823,31.9380707 29.7334315,32.2271723 C29.2902062,33.2007364 28.5664948,34.0469809 27.6455817,34.5974227 C27.5709131,34.892268 27.4608247,35.1775405 27.3019146,35.4388807 C27.3918999,36.0544183 27.5938881,36.6699558 27.514433,37.2979381 C27.4110457,37.6023564 27.0338733,37.5430044 26.7888071,37.4779087 C26.7074374,37.2797496 26.6251105,37.0825479 26.5427835,36.8853461 C25.2772459,37.3122975 23.9858616,37.6626657 22.7365979,38.1374816 C22.4350515,38.2686303 22.0349043,38.1279087 21.9458763,37.7966863 C21.8874816,37.4453608 22.1459499,37.1533873 22.3776141,36.9265096 C22.7318115,36.5981591 23.0946244,36.2784242 23.4162739,35.9175258 C23.3865979,35.8505155 23.3272459,35.7174521 23.2966127,35.6513991 C22.683947,35.7739323 22.0607511,35.8811487 21.4758468,36.1080265 C21.0153903,36.2717231 20.6985272,36.7474963 20.69757,37.2328424 C20.6822533,37.5908689 20.7875552,37.937408 20.8459499,38.2877761 C20.3701767,38.2035346 19.892489,37.8905007 19.773785,37.3994109 C19.6809278,36.8805596 19.737408,36.3425626 19.8848306,35.8399853 C20.113623,35.0301178 20.3912371,34.2326951 20.7569219,33.4745214 C21.3217231,32.2271723 21.9726804,31.0008837 22.8600884,29.9497791 C23.3377761,29.3658321 23.9600147,28.9273932 24.5698085,28.4927835 C25.1499264,28.0840206 25.8018409,27.7451399 26.5150221,27.6570692 C27.1573638,27.5718704 27.8552283,27.6178203 28.4104566,27.9835052 C28.778056,28.2055965 29.0269514,28.5664948 29.3562592,28.8345361 C29.6654639,29.1092784 30.1862297,28.8067747 30.203461,28.4229013 C30.2656848,27.8753314 30.0388071,27.352651 29.8081001,26.8701767 C29.2854197,25.8506627 28.622975,24.8809278 27.7298233,24.1495582 C27.0137703,23.5129602 26.1388071,23.0860088 25.4476436,22.4187776 C24.5008837,21.5342415 23.6747423,20.4352725 23.3961708,19.1477172 C23.2468336,18.546539 23.3741532,17.9013255 23.7092047,17.3863034 Z" id="Path" fill="#46BEE6"></path>
            <path d="M105.339249,19.8216495 C105.34595,19.5986009 105.568999,19.4588365 105.777688,19.4731959 C106.512887,19.4645803 107.249043,19.4617084 107.984242,19.4741532 C108.222607,19.4550074 108.439912,19.6627393 108.416937,19.9049337 C108.430339,21.3734168 108.415979,22.8418999 108.421723,24.3113402 C108.873564,23.8547128 109.428792,23.4861561 110.064433,23.3530928 C111.388365,23.053461 112.89514,23.3865979 113.853387,24.3821797 C114.785788,25.3117084 115.164875,26.6672312 115.127541,27.9576583 C115.142857,29.2547865 114.703461,30.6045655 113.729897,31.4977172 C112.786966,32.4186303 111.364433,32.7010309 110.098895,32.4483063 C109.418262,32.3171576 108.826657,31.916053 108.360457,31.4163476 C108.315464,31.7284242 108.467673,32.2185567 108.095287,32.374595 C107.708542,32.4502209 107.308395,32.4195876 106.918778,32.404271 C106.646907,32.4100147 106.493741,32.1218704 106.516716,31.879676 C106.510015,28.2984536 106.519588,24.7162739 106.511929,21.1340943 C106.139543,21.0852725 105.605376,21.2853461 105.369882,20.8986009 C105.282769,20.5482327 105.304786,20.1777614 105.339249,19.8216495 Z" id="Path" fill="#69C2CE"></path>
            <path d="M22.3632548,20.6324742 C22.6332106,20.5597202 22.9012518,20.4773932 23.1750368,20.4199558 C23.2803387,20.6650221 23.3798969,20.9139175 23.50243,21.1532401 C23.3980854,21.7697349 23.2142857,22.3776141 22.8237113,22.8782769 C22.9519882,23.0754786 23.0793078,23.274595 23.208542,23.4708395 C23.5933726,23.555081 24.0021355,23.6632548 24.2768778,23.9657585 C24.7564801,24.4951399 25.1135493,25.1537555 25.2169367,25.8650221 C25.2810751,26.4011046 25.1499264,26.9448454 24.9326215,27.4330633 C24.8818851,27.5862297 24.7277614,27.6436672 24.5956554,27.7049337 C24.3295287,26.9381443 24.0461708,26.1656112 23.6000736,25.482106 C23.482327,26.0717968 23.4851988,26.6921208 23.2401325,27.2511782 C23.0611193,27.6618557 22.8275405,28.0476436 22.5776878,28.4190722 C22.2531664,28.9082474 21.7582474,29.2423417 21.3064065,29.6041973 C21.3734168,30.0589102 21.443299,30.5385125 21.2997054,30.985567 C21.1417526,31.4029455 20.7167158,31.6202504 20.3089102,31.7255523 C20.2553019,31.6920471 20.1480854,31.6259941 20.0944772,31.592489 C19.9910898,31.1013991 19.8838733,30.6122239 19.9518409,30.1067747 C19.6522091,30.1029455 19.3525773,30.1182622 19.0539028,30.1393225 C18.8394698,30.3776878 18.569514,30.6103093 18.2268041,30.4801178 C18.1846834,30.2637703 18.177025,30.0426362 18.2105302,29.8253314 C18.0200295,29.5726068 17.9223859,29.1590574 17.602651,29.065243 C17.3154639,29.2825479 17.0981591,29.6089838 16.7133284,29.6654639 C16.5716495,29.7315169 16.4328424,29.8329897 16.2672312,29.817673 C15.9963181,29.4893225 15.946539,29.0106775 16.0748159,28.6153166 C16.3064801,28.1960236 16.7334315,27.9385125 17.0924153,27.6388807 C17.1661267,27.1027982 17.1661267,26.5600147 17.2197349,26.0220177 C17.5011782,24.8885862 18.2258468,23.9293814 19.0337997,23.1099411 C18.3273196,23.0888807 17.6361561,23.3100147 17.0043446,23.607732 C16.7535346,23.7149485 16.5256996,23.9274669 16.2356406,23.8920471 C16.1427835,23.5732695 16.3658321,23.2927835 16.5362297,23.0486745 C17.2053756,22.0731959 18.4967599,21.6845361 19.6311487,21.842489 C20.0274669,21.8903535 20.3625184,22.1143594 20.6784242,22.3393225 C20.9416789,22.3316642 21.19919,22.2627393 21.4595729,22.2273196 C21.6127393,21.6194404 21.9525773,21.0958027 22.3632548,20.6324742 Z" id="Path" fill="#019EB0"></path>
            <path d="M131.088439,20.5405744 C131.811193,20.3606038 132.58947,20.984757 132.56458,21.730486 C132.631591,22.505891 131.799705,23.1444035 131.064507,22.9462445 C130.411635,22.8131811 129.96458,22.1009573 130.152209,21.4538292 C130.262297,21.0067747 130.636598,20.6363034 131.088439,20.5405744 Z" id="Path" fill="#69C2CE"></path>
            <path d="M81.3945508,20.6190722 C82.0560383,20.2964654 82.9041973,20.7377761 83.0698085,21.4404271 C83.3062592,22.1536082 82.7012518,22.9759205 81.9516937,22.9606038 C81.3074374,23.0352725 80.6717968,22.4867452 80.6603093,21.8386598 C80.6095729,21.3255523 80.9388807,20.8325479 81.3945508,20.6190722 Z" id="Path" fill="#017FC3"></path>
            <path d="M87.6791605,21.7362297 C87.7748895,21.2939617 88.3071429,21.3877761 88.6431517,21.3753314 C88.9705449,21.3916053 89.5027982,21.2910898 89.5937408,21.7285714 C89.6741532,22.2761414 89.604271,22.8351988 89.6301178,23.3865979 C90.2916053,23.393299 90.9540501,23.3741532 91.6164948,23.3923417 C91.828056,23.3779823 92.0319588,23.5368925 92.0434462,23.7551546 C92.0817378,24.1533873 92.0893962,24.5659794 91.9611193,24.95081 C91.2039028,25.1556701 90.4045655,25.0005891 89.6301178,25.0474963 C89.6243741,26.494919 89.6291605,27.9413844 89.6262887,29.3888071 C89.6157585,29.8119293 89.722975,30.2752577 90.0675994,30.5528719 C90.356701,30.8142121 90.7779087,30.8113402 91.1407216,30.757732 C91.4240795,30.7069956 91.6155376,30.44757 91.8950663,30.3920471 C92.174595,30.3594993 92.3181885,30.6428571 92.4790133,30.8199558 C92.6369661,31.0439617 92.9184094,31.2880707 92.7853461,31.5915317 C92.6474963,31.8442563 92.3861561,31.9916789 92.1497054,32.1381443 C91.4575847,32.536377 90.6180412,32.6072165 89.8445508,32.4645803 C89.1150957,32.3104566 88.4497791,31.8442563 88.0840943,31.1904271 C87.756701,30.6170103 87.6581001,29.9440353 87.6561856,29.2930781 C87.6581001,27.8782032 87.6581001,26.4633284 87.6561856,25.0484536 C87.2837997,24.9986745 86.7659057,25.194919 86.5074374,24.8359352 C86.4231959,24.4377025 86.4289396,24.0088365 86.5016937,23.6086892 C86.7486745,23.2343888 87.2790133,23.4354197 87.6552283,23.3865979 C87.6743741,22.8371134 87.624595,22.2837997 87.6791605,21.7362297 Z" id="Path" fill="#017FC3"></path>
            <path d="M70.3407216,24.271134 C70.8739323,23.7178203 71.5995582,23.3617084 72.3653903,23.2870398 C73.397349,23.14919 74.558542,23.3837261 75.2870398,24.1744477 C75.8786451,24.8005155 76.116053,25.6754786 76.1294551,26.5188513 C76.132327,27.9289396 76.1217968,29.339028 76.1342415,30.7491163 C76.5066274,30.8046392 77.062813,30.5806333 77.2868189,30.9903535 C77.3509573,31.3158321 77.3231959,31.6527982 77.3145803,31.9830633 C77.3337261,32.2233432 77.1039764,32.4167158 76.8742268,32.4071429 C76.2950663,32.4186303 75.7159057,32.410972 75.1367452,32.4100147 C74.588218,32.4530928 74.1201031,31.9447717 74.2043446,31.4010309 C74.2053019,29.9344624 74.2043446,28.4669367 74.2043446,27.0003682 C74.1909426,26.458542 74.1277614,25.8583211 73.7314433,25.4495582 C73.3446981,25.0264359 72.7224595,24.9728277 72.186377,25.0379234 C71.4789396,25.1154639 70.856701,25.5931517 70.5369661,26.2192194 C70.480486,26.3407953 70.4967599,26.4786451 70.4910162,26.6088365 C70.4986745,27.9882916 70.4862297,29.368704 70.4977172,30.7481591 C70.8634021,30.7950663 71.4224595,30.5873343 71.6091311,31.0267305 C71.6761414,31.3397644 71.6512518,31.6671576 71.6368925,31.9849779 C71.6330633,32.2415317 71.3879971,32.4444772 71.1362297,32.4100147 C70.0181149,32.4090574 68.8990427,32.417673 67.7818851,32.4061856 C67.4564065,32.4148012 67.3137703,32.0625184 67.355891,31.7849043 C67.3846097,31.4555965 67.2486745,31.0133284 67.5731959,30.7931517 C67.8795287,30.7089102 68.2040501,30.7586892 68.5189985,30.7510309 C68.5994109,30.1718704 68.5094256,29.5907953 68.5256996,29.0106775 C68.5726068,27.6905744 68.5735641,26.3675994 68.5209131,25.0474963 C68.1533137,25.0063328 67.6124448,25.1968336 67.3989691,24.7928571 C67.3233432,24.4434462 67.3530191,24.0758468 67.3750368,23.7216495 C67.4018409,23.4861561 67.6488218,23.3684094 67.8642121,23.3875552 C68.5381443,23.3846834 69.2130339,23.3818115 69.8879234,23.3894698 C70.067894,23.3760677 70.2756259,23.4717968 70.3215758,23.6603829 C70.3531664,23.8614138 70.3388071,24.0672312 70.3407216,24.271134 Z" id="Path" fill="#017FC3"></path>
            <path d="M95.1977172,25.3155376 C95.8687776,24.1868925 97.1017673,23.4287187 98.4027246,23.2899116 C99.575405,23.1396171 100.864875,23.4047865 101.737923,24.2433726 C102.723932,25.1604566 103.072386,26.5657585 103.030265,27.8715022 C103.035052,28.1309278 102.795729,28.3415317 102.540133,28.3118557 C100.554713,28.3243004 98.5683358,28.312813 96.5829161,28.3166421 C96.6135493,29.2040501 97.1161267,30.04838 97.892489,30.4820324 C98.4649485,30.8419735 99.1723859,30.8458027 99.819514,30.7472018 C100.581517,30.6103093 101.268851,30.1632548 101.748454,29.5611193 C101.873859,29.3935935 102.11701,29.2902062 102.305596,29.4270987 C102.584168,29.6243004 102.830191,29.8760677 103.029308,30.1536819 C103.167158,30.5078792 102.851252,30.80081 102.639691,31.0420471 C100.966348,32.9011046 97.7173049,33.0753314 95.9137703,31.3139175 C95.1862297,30.645729 94.7420471,29.7008837 94.6214286,28.7263623 C94.4625184,27.5718704 94.5927099,26.3312224 95.1977172,25.3155376 Z" id="Path" fill="#017FC3"></path>
            <path d="M55.183947,23.4124448 C55.6769514,23.3502209 56.1776141,23.4038292 56.6744477,23.3846834 C57.0190722,23.393299 57.4106038,23.3377761 57.7044919,23.5627393 C57.9945508,23.7781296 58.0625184,24.1658321 58.0567747,24.5056701 C58.0548601,26.0086156 58.0558174,27.5115611 58.0548601,29.0154639 C58.0491163,29.5266568 58.1946244,30.0770987 58.5880707,30.4284242 C59.0322533,30.8036819 59.6640648,30.8189985 60.2116348,30.7290133 C60.8252577,30.6237113 61.3383652,30.203461 61.6648012,29.6874816 C61.7404271,29.5716495 61.720324,29.4242268 61.7308542,29.2930781 C61.7260677,27.8782032 61.7298969,26.4633284 61.7279823,25.0484536 C61.3776141,25.0063328 60.8970545,25.1805596 60.6567747,24.8435935 C60.5715758,24.4826951 60.611782,24.1016937 60.6223122,23.7340943 C60.6175258,23.5043446 60.8616348,23.3684094 61.0693667,23.3885125 C61.802651,23.3875552 62.5359352,23.3779823 63.2692194,23.3923417 C63.5573638,23.3722386 63.706701,23.6776141 63.6904271,23.9274669 C63.6980854,26.2010309 63.6837261,28.4755523 63.6971281,30.7491163 C64.0675994,30.8017673 64.607511,30.5882916 64.838218,30.9846097 C64.8985272,31.3110457 64.8717231,31.6480118 64.8659794,31.9792342 C64.8899116,32.2185567 64.6582474,32.4195876 64.4275405,32.4071429 C63.8244477,32.4081001 63.2184831,32.4329897 62.6173049,32.3918262 C62.1989691,32.3439617 61.9529455,31.9715758 61.8610457,31.5934462 C61.3718704,32.1391016 60.657732,32.4368189 59.9368925,32.5038292 C59.0533137,32.5947717 58.0969809,32.4885125 57.3646539,31.945729 C56.5547865,31.3713549 56.1240059,30.3729013 56.1182622,29.3945508 C56.1125184,27.9471281 56.1182622,26.4987482 56.1163476,25.0503682 C55.804271,25.0407953 55.487408,25.0781296 55.1810751,25.016863 C54.8555965,24.8981591 54.9111193,24.4932253 54.903461,24.2175258 C54.9159057,23.9427835 54.8488954,23.5196613 55.183947,23.4124448 Z" id="Path" fill="#017FC3"></path>
            <path d="M79.7767305,23.7264359 C79.7843888,23.5388071 79.9557437,23.3923417 80.1405007,23.3952135 C80.8039028,23.3693667 81.4701767,23.3971281 82.1345361,23.3837119 C82.3250368,23.3923417 82.5308542,23.3626657 82.7089102,23.4488218 C82.8974963,23.578056 82.8726068,23.8279087 82.8840943,24.0279823 C82.8802651,26.1684831 82.8840943,28.3089838 82.8812224,30.4485272 C82.8639912,30.5758468 82.8936672,30.7845361 83.0774669,30.7433726 C83.3770987,30.7893225 83.8117084,30.6351988 83.9849779,30.9721649 C84.0558174,31.325405 84.0299705,31.6930044 84.011782,32.0519882 C84.0079529,32.2731222 83.7791605,32.4215022 83.5733432,32.4071429 C82.4877761,32.4167158 81.4012518,32.4071429 80.3166421,32.4119293 C80.1108247,32.4291605 79.8494845,32.3573638 79.7910898,32.1352725 C79.7317378,31.7963918 79.7451399,31.4479381 79.7738586,31.1071429 C79.7796024,30.9214286 79.9461708,30.7558174 80.1337997,30.7586892 C80.3989691,30.7357143 80.6650957,30.7491163 80.9321797,30.7481591 C80.939838,28.8488954 80.9340943,26.9486745 80.9350515,25.0494109 C80.570324,24.9996318 80.0562592,25.1939617 79.8102356,24.8340206 C79.7192931,24.4740795 79.7480118,24.0930781 79.7767305,23.7264359 Z" id="Path" fill="#017FC3"></path>
            <path d="M116.832474,23.6718704 C116.869809,23.4220177 117.152209,23.3741532 117.360898,23.3827688 C118.351694,23.3818115 119.342489,23.3865979 120.333284,23.3818115 C120.549632,23.3818115 120.861708,23.3818115 120.923932,23.65081 C120.986156,24.0222386 120.989028,24.4099411 120.920103,24.7804124 C120.814801,25.1221649 120.390722,25.0283505 120.120766,25.0685567 C120.720987,26.6949926 121.341311,28.3137703 121.966421,29.9306333 C122.60972,28.3156848 123.218557,26.6854197 123.854197,25.0675994 C123.577541,25.0302651 123.153461,25.1250368 123.029971,24.7899853 C122.960088,24.4156848 122.96296,24.0231959 123.026141,23.6488954 C123.105596,23.3655376 123.444477,23.3808542 123.679013,23.3798969 C124.704271,23.3961708 125.729529,23.3664948 126.754786,23.393299 C127.09271,23.3779823 127.198969,23.7599411 127.17025,24.0337261 C127.145361,24.3525037 127.267894,24.7995582 126.937629,24.9967599 C126.607364,25.0963181 126.254124,25.0388807 125.9162,25.0484536 C124.984757,27.3411635 124.09352,29.6501473 123.173564,31.9476436 C123.084536,32.1745214 122.900736,32.4004418 122.637482,32.4023564 C122.160751,32.4234168 121.681149,32.4310751 121.205376,32.3966127 C120.959352,32.381296 120.83299,32.1458027 120.752577,31.9447717 C119.854639,29.6463181 118.96053,27.3459499 118.054934,25.0503682 C117.673932,25.0072901 117.187629,25.1796024 116.884168,24.8866716 C116.739617,24.5056701 116.791311,24.0701031 116.832474,23.6718704 Z" id="Path" fill="#69C2CE"></path>
            <path d="M129.218851,23.8250368 C129.210236,23.6019882 129.379676,23.3865979 129.613255,23.3942563 C130.283358,23.363623 130.955376,23.3952135 131.627393,23.3798969 C131.865758,23.3894698 132.208468,23.3425626 132.308984,23.6287923 C132.38461,23.9140648 132.345361,24.2156112 132.353976,24.5075847 C132.351105,26.5858616 132.34919,28.6641384 132.355891,30.7424153 C132.714875,30.7931517 133.278719,30.5873343 133.462518,31.0171576 C133.519956,31.3675258 133.515169,31.7284242 133.472091,32.0807069 C133.434757,32.308542 133.194477,32.4272459 132.981959,32.410972 C131.891605,32.4157585 130.802209,32.4138874 129.712813,32.410972 C129.497423,32.4282032 129.256186,32.3027982 129.234168,32.0692194 C129.196834,31.7006627 129.163328,31.3100884 129.275331,30.9530191 C129.50891,30.6016937 130.011487,30.7931517 130.362813,30.7491163 C130.443225,28.8536819 130.376215,26.9525037 130.397275,25.0541973 C130.043078,25.0178203 129.61134,25.1537555 129.318409,24.9048601 C129.138439,24.581296 129.214065,24.1801915 129.218851,23.8250368 Z" id="Path" fill="#69C2CE"></path>
            <path d="M25.3519146,23.8403535 C25.6572901,23.8451399 25.9119293,24.0318115 26.1665685,24.1773196 C27.019514,24.7 27.8638439,25.2829897 28.4870398,26.0775405 C28.7464654,26.4346097 29.0164212,26.8309278 29.035567,27.2865979 C29.005891,27.3210604 28.9455817,27.3899853 28.9159057,27.4244477 C28.6095729,27.336377 28.3980118,27.0673785 28.1041237,26.9496318 C27.4818851,26.656701 26.7811487,26.7045655 26.1139175,26.7284978 C26.0861561,26.7103093 26.0287187,26.672975 26.0009573,26.6547865 C25.9435199,26.1301915 25.9301178,25.5931517 25.7568483,25.0886598 C25.6544183,24.7143594 25.4198822,24.3946244 25.2963918,24.0289396 C25.3107511,23.9820324 25.3385125,23.888218 25.3519146,23.8403535 Z" id="Path" fill="#69C2CE"></path>
            <path d="M14.5919735,24.4482327 C15.1567747,24.3678203 15.7340206,24.3879234 16.2940353,24.4941826 C16.4586892,24.5410898 16.6769514,24.6061856 16.7190722,24.7986009 C16.7573638,24.9450663 16.662592,25.0714286 16.5735641,25.1748159 C16.0403535,25.7826951 15.4707658,26.3570692 14.9241532,26.953461 C15.3539764,26.8510309 15.784757,26.6768041 16.2337261,26.7476436 C16.0642857,27.2224595 15.9187776,27.7078056 15.7206186,28.171134 C15.4324742,28.5798969 14.9921208,28.8450663 14.6321797,29.183947 C14.8782032,29.272975 15.2084683,29.2777614 15.3434462,29.5410162 C15.5262887,29.8483063 15.6555228,30.1958027 15.6746686,30.5557437 C15.3721649,30.8783505 14.9222386,30.9913108 14.5393225,31.1904271 C14.986377,31.3100884 15.5061856,31.355081 15.8603829,31.6757732 C15.8201767,32.160162 15.4966127,32.5670103 15.1634757,32.89919 C14.890648,32.8810015 14.6187776,32.8455817 14.3516937,32.7862297 C14.587187,32.9566274 14.8054492,33.1528719 14.986377,33.3816642 C14.8389543,34.014433 14.3976436,34.5074374 14.1458763,35.0923417 C14.3842415,35.3268778 14.8131075,35.5987482 14.6494109,35.9883652 C14.3191458,36.644109 13.8031664,37.1840206 13.3283505,37.736377 C12.8420471,38.1796024 12.8468336,38.8841679 12.660162,39.4729013 C12.8611929,39.7016937 12.6783505,39.9438881 12.5720913,40.1659794 C12.6525037,40.0606775 12.7338733,39.9553756 12.815243,39.8519882 C12.9205449,39.8625184 13.0248895,39.8740059 13.1301915,39.8864507 C13.6959499,39.2862297 14.3124448,38.7348306 14.8791605,38.135567 C14.890648,37.5994845 14.8466127,37.0595729 14.9155376,36.5263623 C15.039028,35.8103093 15.2161267,35.1009573 15.4755523,34.4212813 C15.6047865,34.4241532 15.7349779,34.427025 15.8651694,34.4298969 C15.8345361,34.0756996 15.6928571,33.7033137 15.85081,33.3596465 C16.154271,32.6005155 16.4950663,31.8289396 17.0589102,31.222975 C17.3920471,30.8544183 18.0401325,30.7663476 18.4259205,31.1013991 C18.4986745,31.2756259 18.3081738,31.4000736 18.2277614,31.533137 C17.985567,31.8097938 17.8477172,32.1572901 17.7921944,32.5181885 C18.229676,32.0022091 18.790648,31.5618557 19.4722386,31.4393225 C19.721134,31.9284978 20.1117084,32.3726804 20.1949926,32.9269514 C19.8092047,33.1231959 19.4243741,33.3232695 19.0385862,33.5214286 C19.3592784,33.555891 19.6790133,33.5951399 19.9958763,33.6583211 C19.9011046,34.0287923 19.7613402,34.3877761 19.5536082,34.7094256 C19.2702504,34.7496318 18.9859352,34.783137 18.7006627,34.8032401 C18.9064801,34.8807806 19.1046392,34.9784242 19.292268,35.0923417 C19.1649485,35.5403535 19.0146539,35.9921944 18.7561856,36.3837261 C18.5513255,36.6967599 18.1119293,36.5933726 17.7979381,36.6431517 C17.9530191,36.7733432 18.2440353,36.8853461 18.1597938,37.1438144 C18.0506627,37.4836524 17.9386598,37.9766568 17.5212813,38.0379234 C17.2369661,38.1020619 16.9478645,38.1432253 16.6597202,38.188218 C16.8521355,38.2849043 17.0407216,38.3873343 17.2312224,38.4878498 C17.1402798,38.8056701 16.8310751,38.9923417 16.5477172,39.118704 C16.0767305,39.1723122 15.6019146,39.095729 15.1290133,39.0947717 C14.6570692,39.5992636 14.121944,40.0415317 13.6739323,40.5689985 C13.7562592,40.9318115 13.4183358,41.0782769 13.1474227,41.1988954 C13.3905744,41.1807069 13.6394698,41.1835788 13.8634757,41.2936672 C14.2396907,41.1778351 14.6187776,41.0734904 15.0055228,40.9978645 C15.3003682,40.7001473 15.6057437,40.4081738 15.9637703,40.1851252 C16.4768778,39.8529455 17.078056,39.6662739 17.5490427,39.2680412 C17.8812224,38.9990427 18.1349043,38.6448454 18.4776141,38.3892489 C18.592489,38.320324 18.7207658,38.2274669 18.8624448,38.267673 C19.3851252,38.3595729 19.8561119,38.6218704 20.3156112,38.8765096 C20.1710604,39.1148748 19.9843888,39.3226068 19.7910162,39.5226804 C20.5118557,39.3484536 21.2078056,39.0804124 21.9343888,38.9282032 C22.6284242,38.8334315 23.3607511,38.8535346 24.0097938,39.1445508 C23.9734168,39.5140648 23.7867452,39.8424153 23.6173049,40.1650221 C23.4899853,40.3928571 23.3617084,40.6312224 23.1530191,40.7968336 C22.6724595,40.8628866 22.1880707,40.7537555 21.7065538,40.7432253 C21.8970545,40.9547865 22.129676,41.1376289 22.2703976,41.3893962 C22.3728277,41.5684094 22.1555228,41.6679676 22.0416053,41.7627393 C21.7620766,41.9474963 21.4777614,42.1351252 21.1599411,42.2480854 C20.8641384,42.2184094 20.6573638,41.9513255 20.4266568,41.7837997 C20.4333579,42.0259941 20.4544183,42.2701031 20.4218704,42.5113402 C20.1251105,42.840648 19.6435935,42.8684094 19.2329161,42.9258468 C19.0701767,42.9210604 18.8614875,42.9804124 18.7399116,42.8425626 C18.5781296,42.530486 18.510162,42.1810751 18.4058174,41.8479381 C18.2038292,42.0518409 18.0554492,42.3639175 17.7893225,42.4720913 C17.0579529,42.3476436 16.4022091,41.9618557 15.6928571,41.7646539 C15.1184831,41.7981591 14.5603829,41.9781296 14.0185567,42.1628866 C14.0434462,42.2557437 14.0951399,42.441458 14.1200295,42.5343152 C13.9199558,42.8722386 13.6413844,43.1527246 13.4145066,43.4715022 C13.7208395,43.5643594 14.04919,43.6964654 14.204271,43.9999264 C14.4148748,44.3388071 14.3191458,44.7581001 14.1372607,45.0864507 C15.3712077,46.3481591 16.7506627,47.4892489 18.3292342,48.2952872 C19.8446244,49.0860088 21.5476436,49.5244477 23.2592784,49.5139175 C24.294109,49.4756259 25.327025,49.3071429 26.310162,48.9778351 C27.2052283,48.7030928 28.0418999,48.1478645 29.0145066,48.2129602 C29.0508837,48.2684831 29.1236377,48.3795287 29.1600147,48.4350515 C28.6909426,49.1941826 28.1175258,49.9896907 28.1816642,50.9297496 C28.1883652,51.4016937 28.4659794,51.7951399 28.7014728,52.1818851 C28.880486,52.4097202 28.5588365,52.5504418 28.3836524,52.6155376 C27.4981591,52.8854934 26.5571429,52.8157333 25.6448454,52.782106 C21.8377025,52.4470545 18.067894,51.0905744 15.0868925,48.667673 C13.7399853,47.5888071 12.6343152,46.25243 11.5650221,44.9074374 C11.0413844,44.2153166 10.5206186,43.5184094 10.0706922,42.7765096 C9.37091311,41.5626657 8.85397644,40.2540501 8.36575847,38.9435199 C8.03357879,38.0781296 7.78372607,37.1811487 7.62768778,36.267894 C7.42569956,34.4298969 7.34528719,32.5717968 7.50419735,30.7270987 C7.58365243,29.2806333 7.81723122,27.8236377 8.40405007,26.4901325 C8.4892489,26.3111193 8.60220913,26.029676 8.84631811,26.1837997 C9.16605302,26.5044919 9.31251841,26.9505891 9.49631811,27.3555228 C9.62459499,27.7030191 9.82562592,28.0466863 9.79594993,28.4305596 C9.75765832,28.8986745 9.68873343,29.3639175 9.61789396,29.8282032 C9.80648012,29.3696613 10.0352725,28.9264359 10.3262887,28.5243741 C10.459352,28.5712813 10.6479381,28.5712813 10.6833579,28.7426362 C10.8824742,29.2643594 10.8815169,29.8320324 10.9284242,30.3815169 C10.931296,30.787408 10.983947,31.2153166 10.828866,31.6020619 C10.6220913,32.0290133 10.3550074,32.4234168 10.1290869,32.8407953 C10.3856406,32.6933726 10.6488954,32.5536082 10.9370398,32.4779823 C11.0997791,33.0073638 11.1208395,33.5798233 11.0385125,34.1235641 C10.812592,34.4193667 10.4880707,34.6213549 10.2133284,34.8673785 C10.5225331,34.8721649 10.8326951,34.8769514 11.1418999,34.9056701 C11.2883652,35.3594256 11.3295287,35.8428571 11.2586892,36.3157585 C10.9667158,36.5053019 10.6536819,36.6613402 10.3272459,36.7848306 C10.7293078,36.8413108 11.2797496,36.7111193 11.5497054,37.0930781 C11.7143594,37.4692931 11.6530928,37.9000736 11.6569219,38.3011782 C11.6751105,38.6400589 11.2625184,38.8908689 11.4271723,39.2335788 C11.5841679,39.0976436 11.7440353,38.9645803 11.9163476,38.8477909 C12.0810015,38.3519146 12.1863034,37.8397644 12.3059647,37.3333579 C12.1365243,37.1744477 11.8636966,37.0356406 11.8933726,36.7647275 C11.8866716,35.7097938 11.9450663,34.6548601 11.8943299,33.6008837 C11.8656112,33.3615611 11.9718704,33.1461708 12.0360088,32.9240795 C11.6597938,32.3286451 11.7727541,31.5963181 11.6607511,30.9300442 C11.6320324,30.2647275 11.4089838,29.5735641 11.633947,28.9226068 C11.9307069,28.9427099 12.188218,29.0901325 12.4103093,29.279676 C12.534757,28.6689249 12.5606038,28.0313697 12.8056701,27.4512518 C13.2479381,26.3675994 13.8950663,25.3835052 14.5919735,24.4482327 Z" id="Path" fill="#017FC3"></path>
            <path d="M98.097349,25.0503682 C98.8698822,24.8148748 99.8348306,24.8388071 100.436966,25.4447717 C100.808395,25.7817378 100.973049,26.2718704 101.070692,26.7505155 C99.5840206,26.7553019 98.0963918,26.7581738 96.6106775,26.7486009 C96.7667158,25.9674521 97.3257732,25.2849043 98.097349,25.0503682 Z" id="Path" fill="#FEFFFF"></path>
            <path d="M110.321944,25.0273932 C110.879087,24.9469809 111.486966,24.9852725 111.96944,25.3050074 C112.651031,25.7281296 113.058837,26.4930044 113.157437,27.277025 C113.296244,28.2783505 113.109573,29.4041237 112.384904,30.1536819 C111.945508,30.6208395 111.291679,30.8505891 110.656038,30.7960236 C109.87489,30.7912371 109.170324,30.2829161 108.798895,29.6156848 C108.367158,28.8536819 108.327909,27.9327688 108.4581,27.085567 C108.611267,26.1215758 109.332106,25.2092784 110.321944,25.0273932 Z" id="Path" fill="#FEFFFF"></path>
            <path d="M39.0373343,25.3988218 C39.937187,25.1614138 40.9662739,25.2877761 41.7215758,25.8564065 C42.4146539,26.3580265 42.9918999,27.0884389 43.1278351,27.9509573 C43.2944035,28.8756996 43.0158321,29.8416053 42.4768778,30.5988218 C41.9494109,31.3703976 41.20081,31.9868925 40.7939617,32.839838 C40.3995582,33.8306333 40.5316642,34.9525773 40.8485272,35.9462445 C41.0055228,36.4717968 41.3108984,36.931296 41.6335052,37.3678203 C41.3300442,37.6033137 40.9289396,37.4893962 40.5785714,37.4817378 C39.8366716,37.4386598 39.1799705,37.0605302 38.5539028,36.6948454 C37.6521355,36.2133284 37.0815906,35.189028 37.0844624,34.1752577 C37.0710604,33.4754786 37.5296024,32.839838 37.3716495,32.1333579 C36.7436672,31.6384389 35.8945508,31.6164212 35.2311487,31.1885125 C35.1019146,31.1052283 35.0444772,30.9520619 34.9650221,30.8285714 C35.1478645,30.5184094 35.3996318,30.2599411 35.6552283,30.0091311 C35.6169367,29.8148012 35.6360825,29.6233432 35.7681885,29.4673049 C35.6552283,29.2251105 35.7538292,28.9790869 35.786377,28.732106 C35.6437408,28.5301178 35.4474963,28.3731222 35.2751841,28.1988954 C35.4982327,27.9413844 35.8639175,27.9547865 36.155891,27.8255523 C36.5502946,27.6714286 36.7771723,27.2923417 37.0318115,26.9783505 C37.5592784,26.3053756 38.1796024,25.6256996 39.0373343,25.3988218 Z" id="Path" fill="#019EB0"></path>
            <path d="M32.7240059,28.8986745 C32.9259941,28.2946244 33.0935199,27.6743004 33.3950663,27.1094993 C33.978056,27.1793814 34.2863034,27.7480118 34.479676,28.2391016 C34.6558174,28.7531664 34.8319588,29.3505155 34.5533873,29.8617084 C33.305081,32.5344624 32.0290133,35.1938144 30.7481591,37.8502946 C30.5815906,38.3145803 29.7238586,38.0312224 29.9181885,37.5439617 C30.8888807,34.6749632 31.7782032,31.7772459 32.7240059,28.8986745 Z" id="Path" fill="#69C2CE"></path>
            <path d="M33.8986009,33.7100147 C34.2192931,33.1662739 34.4758468,32.5756259 34.9066274,32.1055965 C35.4494109,32.308542 36.0362297,32.4483063 36.5072165,32.7986745 C36.7111193,32.9231222 36.5569956,33.1538292 36.4488218,33.2868925 C34.9114138,35.1670103 33.4142121,37.079676 31.8758468,38.9597938 C31.7322533,39.1177467 31.6011046,39.3044183 31.4019882,39.3972754 C31.1731959,39.4413108 31.0736377,39.2115611 30.9463181,39.0717968 C31.9275405,37.2835788 32.9164212,35.4982327 33.8986009,33.7100147 Z" id="Path" fill="#69C2CE"></path>
            <path d="M30.1661267,32.5411635 C30.358542,32.4387334 30.668704,32.522975 30.6830633,32.7670839 C30.6878498,32.9843888 30.5882916,33.186377 30.5193667,33.3883652 C30.061782,34.5620029 29.6032401,35.7356406 29.1533137,36.9111929 C29.0729013,37.102651 28.9886598,37.3122975 28.8048601,37.4271723 C28.6,37.5765096 28.2391016,37.4118557 28.2678203,37.1428571 C28.2706922,36.6891016 28.4056701,36.2506627 28.4793814,35.8064801 C28.5617084,35.4226068 28.5904271,35.0253314 28.718704,34.6539028 C28.880486,34.3523564 29.1724595,34.1503682 29.3610457,33.8679676 C29.6817378,33.4572901 29.8569219,32.9566274 30.1661267,32.5411635 Z" id="Path" fill="#69C2CE"></path>
            <path d="M43.6648748,34.5811487 C44.3100884,34.2824742 45.1266568,34.0297496 45.7785714,34.4471281 C46.4515464,34.885567 46.9656112,35.5633284 47.2393962,36.3167158 C47.4471281,36.8623711 47.1618557,37.4156848 47.0182622,37.9393225 C46.4687776,39.6298969 45.8570692,41.3166421 44.9715758,42.8645803 C44.0315169,44.3991163 42.8607511,45.7776141 41.6287187,47.0833579 C40.692489,48.0425626 39.6739323,48.9366716 38.5012518,49.5972018 C37.0576583,50.4415317 35.5566274,51.1997054 33.9857143,51.7779087 C33.0303387,52.1244477 32.0366716,52.4097202 31.0142857,52.4307806 C30.5078792,52.4460972 30.0033873,52.5303387 29.4960236,52.5159794 C29.2107511,52.5025773 29.0757732,52.1311487 29.2212813,51.9061856 C29.4845361,51.4294551 30.0732695,51.3174521 30.5327688,51.1116348 C30.1010309,51.0915317 29.6511046,51.1279087 29.2365979,50.9824006 C28.9656848,50.8991163 28.7828424,50.5430044 28.9503682,50.2931517 C29.0480118,50.1351988 29.2337261,50.0614875 29.4041237,50.0117084 C30.4868189,49.7494109 31.6030191,49.9322533 32.7010309,49.8920471 C32.1639912,49.8011046 31.6317378,49.6843152 31.1033137,49.54838 C30.682106,49.4354197 30.2254786,49.4277614 29.8282032,49.238218 C29.5783505,48.9988954 29.6606775,48.5001473 29.9928571,48.3699558 C30.5586156,48.1143594 31.1923417,48.2799705 31.7858616,48.3115611 C32.4329897,48.3536819 33.0695876,48.5547128 33.7224595,48.4819588 C32.8197349,48.2043446 31.9083947,47.9535346 30.9980118,47.70081 C30.7510309,47.6548601 30.4255523,47.3868189 30.6591311,47.1360088 C31.0650221,46.7808542 31.6642857,46.8650957 32.1659057,46.8392489 C32.9853461,46.8047865 33.7779823,47.0278351 34.5715758,47.1963181 C34.8377025,47.2805596 35.0684094,47.0824006 35.2962445,46.9770987 C35.8399853,46.6659794 36.4344624,46.460162 36.9849043,46.1643594 C36.3521355,45.9690722 35.6983063,45.8436672 35.0368189,45.803461 C34.5505155,45.7517673 34.0163476,45.6770987 33.6401325,45.3372607 C33.4036819,45.1247423 33.562592,44.7513991 33.8248895,44.6441826 C34.5505155,44.2698822 35.4053756,44.3455081 36.1893962,44.4383652 C37.1773196,44.5484536 38.2303387,44.3426362 39.0143594,43.7031664 C39.5226804,43.2848306 40.1171576,42.9382916 40.7901325,42.9019146 C41.1156112,42.5821797 41.45162,42.256701 41.6545655,41.8412371 C41.9580265,41.2247423 42.1111929,40.5488954 42.2461708,39.8787923 C42.5065538,38.4763623 42.6108984,37.05 42.6759941,35.6265096 C42.7037555,35.0856406 43.2388807,34.7984536 43.6648748,34.5811487 Z" id="Path" fill="#46BEE6"></path>
            <path d="M25.0293078,35.3718704 C25.297349,35.3086892 25.5663476,35.2493373 25.8353461,35.1947717 C25.9990427,35.3651694 26.1636966,35.5336524 26.3360088,35.6954345 C26.3455817,35.7825479 26.3647275,35.9567747 26.3743004,36.0438881 C25.4399853,36.3731959 24.5008837,36.6948454 23.5435935,36.9533137 C23.9198085,36.5895434 24.2539028,36.1798233 24.6741532,35.8629602 C24.8416789,35.7394698 24.9335788,35.5499264 25.0293078,35.3718704 Z" id="Path" fill="#FEFFFF"></path>
            <path d="M36.2047128,35.8045655 C36.4813697,35.6140648 36.6278351,36.0027246 36.7637703,36.178866 C36.9619293,36.5282769 37.3266568,36.7273932 37.5707658,37.0365979 C37.6081001,37.271134 37.3812224,37.3888807 37.2270987,37.5123711 C35.6006627,38.6285714 33.9866716,39.7639175 32.3525773,40.8695876 C32.1735641,40.9777614 31.9888071,41.1251841 31.7667158,41.1069956 C31.569514,41.0227541 31.4661267,40.7891753 31.5675994,40.5929308 C31.7896907,40.2416053 32.1247423,39.9821797 32.4004418,39.6758468 C33.4860088,38.5261414 34.5830633,37.3879234 35.6925626,36.2611929 C35.8553019,36.1003682 36.0170839,35.9357143 36.2047128,35.8045655 Z" id="Path" fill="#69C2CE"></path>
            <path d="M56.1230486,35.8418999 C81.9172312,35.8428571 107.711414,35.8418999 133.504639,35.8428571 C133.502725,35.9720913 133.501767,36.1022828 133.504639,36.2324742 C107.710457,36.2315169 81.9162739,36.2324742 56.1220913,36.2315169 C56.1220913,36.1013255 56.1220913,35.971134 56.1230486,35.8418999 Z" id="Path" fill="#017FC3"></path>
            <path d="M24.670324,39.6030928 C25.5558174,37.907732 28.0083947,37.3343152 29.5793078,38.3988218 C30.7108247,39.1493373 31.2047865,40.6599411 30.8659057,41.9551546 C30.7864507,41.9886598 30.7069956,42.0221649 30.6284978,42.0566274 C30.0014728,41.7033873 29.2547865,41.5722386 28.5550074,41.7732695 C27.8159794,41.9656848 27.15162,42.3581738 26.435567,42.6156848 C25.917673,42.8128866 25.4313697,43.1115611 24.8799705,43.2053756 C24.5525773,43.1010309 24.4578056,42.7296024 24.3917526,42.4328424 C24.2357143,41.4927835 24.2069956,40.4665685 24.670324,39.6030928 Z" id="Path" fill="#69C2CE"></path>
            <path d="M36.6938881,39.1770987 C37.5927835,38.6563328 38.5567747,38.069514 39.6365979,38.1317378 C40.3708395,38.158542 40.9988218,38.7606775 41.1519882,39.4642857 C41.3453608,40.1276878 41.0371134,40.8025773 40.6685567,41.342489 C40.0070692,42.2930781 39.0344624,43.0952872 37.8713549,43.3020619 C37.3103829,43.3738586 36.7082474,43.4044919 36.192268,43.1326215 C36.2353461,43.0148748 36.2238586,42.8597938 36.3195876,42.7707658 C36.7972754,42.6319588 37.3352725,42.6453608 37.7564801,42.3438144 C38.194919,42.0259941 38.6467599,41.6650957 38.8650221,41.1548601 C38.9952135,40.9050074 38.8238586,40.5642121 38.5472018,40.5220913 C38.1326951,40.4598675 37.7315906,40.6350515 37.3639912,40.8064065 C35.6054492,41.6746686 34.2326951,43.107732 32.6531664,44.2382916 C31.4345361,45.1496318 30.1565538,45.9796024 28.8421944,46.7454345 C27.0003682,47.7639912 24.9125184,48.4283505 22.7911635,48.3718704 C21.7706922,48.3469809 20.7664948,48.1134021 19.8015464,47.7917526 C18.6987482,47.4126657 17.6265832,46.9139175 16.6913108,46.2103093 C16.1284242,45.7862297 15.5674521,45.3190722 15.2209131,44.6930044 C15.0572165,44.4115611 15.0036082,44.067894 15.0811487,43.7510309 C15.1969809,43.3547128 15.5712813,43.0646539 15.9790869,43.025405 C16.7353461,42.9373343 17.4772459,43.1891016 18.163623,43.4810751 C18.6863034,43.7108247 19.1994109,43.9874816 19.5986009,44.4029455 C19.559352,44.4632548 19.4808542,44.5819588 19.4416053,44.6413108 C18.9916789,44.5743004 18.5474963,44.4469809 18.0908689,44.4469809 C17.9415317,44.4402798 17.7893225,44.4881443 17.6945508,44.6097202 C17.6237113,44.8528719 17.7385862,45.1027246 17.9300442,45.2549337 C18.3349779,45.5986009 18.8471281,45.7776141 19.3391753,45.9566274 C20.1461708,46.2189249 20.9713549,46.4563328 21.8223859,46.5175994 C22.5259941,46.5750368 23.2343888,46.6832106 23.9399116,46.5836524 C25.9990427,46.3864507 27.9423417,45.5354197 29.6501473,44.3962445 C30.7548601,43.6734904 31.7513991,42.8061856 32.7488954,41.9455817 C33.9608247,40.8849043 35.3297496,40.0252577 36.6938881,39.1770987 Z" id="Path" fill="#69C2CE"></path>
            <path d="M62.5656112,39.6126657 C63.2424153,39.4891753 64.0111193,39.5322533 64.571134,39.9745214 C64.9894698,40.2961708 65.1723122,40.8379971 65.1684831,41.3530191 C65.1713549,42.1858616 65.1732695,43.0177467 65.1675258,43.8505891 C65.1665685,44.3675258 64.9913844,44.902651 64.5921944,45.2482327 C64.0541973,45.7354934 63.2692194,45.7929308 62.584757,45.6761414 C61.9826215,45.5679676 61.4139912,45.1477172 61.2522091,44.539838 C61.0904271,43.9061119 61.1756259,43.2455817 61.1555228,42.5984536 C61.1737113,41.946539 61.0789396,41.2649485 61.3163476,40.6407953 C61.5183358,40.1075847 62.0218704,39.7399853 62.5656112,39.6126657 Z" id="Path" fill="#017FC3"></path>
            <path d="M100.948159,39.6088365 C101.581885,39.4997054 102.287408,39.5284242 102.836892,39.90081 C103.313623,40.2100147 103.540501,40.7968336 103.530928,41.3501473 C103.529013,42.1791605 103.529971,43.0091311 103.529971,43.8381443 C103.538586,44.4000736 103.317452,44.9840206 102.859867,45.3286451 C102.340059,45.7335788 101.639323,45.7776141 101.010383,45.6876289 C100.464728,45.6014728 99.9353461,45.2769514 99.7017673,44.7638439 C99.4337261,44.1741532 99.5543446,43.5117084 99.5294551,42.8865979 C99.5553019,42.2365979 99.4662739,41.5760677 99.5888071,40.9337261 C99.7161267,40.2626657 100.292415,39.7486009 100.948159,39.6088365 Z" id="Path" fill="#017FC3"></path>
            <path d="M56.1230486,39.6672312 C57.2373343,39.6681885 58.35162,39.6662739 59.466863,39.6681885 C59.4659057,39.8653903 59.466863,40.0645066 59.466863,40.2626657 C58.6053019,40.263623 57.7427835,40.263623 56.8812224,40.2626657 C56.8754786,40.927025 56.8793078,41.5904271 56.8783505,42.2547865 C57.5570692,42.2547865 58.2348306,42.2547865 58.9145066,42.2547865 C58.9135493,42.4558174 58.9135493,42.6568483 58.9154639,42.8588365 C58.2367452,42.8588365 57.5589838,42.8588365 56.8812224,42.8588365 C56.8678203,43.771134 56.8936672,44.6853461 56.8697349,45.5986009 C56.6237113,45.6455081 56.371944,45.6206186 56.1240059,45.6273196 C56.1220913,43.6409426 56.1230486,41.6545655 56.1230486,39.6672312 Z" id="Path" fill="#017FC3"></path>
            <path d="M67.3214286,39.6672312 C67.5626657,39.6672312 67.8039028,39.6672312 68.0460972,39.6672312 C68.0460972,41.0294551 68.0460972,42.3916789 68.0451399,43.7539028 C68.042268,44.1597938 68.1370398,44.6116348 68.4845361,44.8653166 C68.9516937,45.2022828 69.6466863,45.2041973 70.1090574,44.8557437 C70.4106038,44.6192931 70.5283505,44.2191458 70.5197349,43.8477172 C70.5178203,42.4548601 70.5178203,41.0610457 70.5187776,39.6681885 C70.7466127,39.6672312 70.975405,39.6672312 71.2051546,39.6672312 C71.2041973,41.1242268 71.2061119,42.5812224 71.2041973,44.0391753 C71.2166421,44.5302651 70.9801915,45.0175258 70.5934462,45.3190722 C70.1779823,45.6445508 69.6332842,45.75081 69.1163476,45.7230486 C68.5582474,45.7153903 67.969514,45.5028719 67.6344624,45.0376289 C67.3750368,44.7006627 67.3204713,44.2622239 67.3214286,43.8505891 C67.3204713,42.4558174 67.3214286,41.0620029 67.3214286,39.6672312 Z" id="Path" fill="#017FC3"></path>
            <path d="M73.5447717,39.6662739 C73.7917526,39.6662739 74.0396907,39.6691458 74.2885862,39.6720177 C75.0974963,41.1720913 75.9504418,42.6472754 76.7516937,44.1511782 C76.7765832,42.6578056 76.7555228,41.164433 76.7631811,39.6720177 C76.9852725,39.6681885 77.2083211,39.6672312 77.4313697,39.6662739 C77.4313697,41.6536082 77.4332842,43.6409426 77.4304124,45.6282769 C77.2121502,45.625405 76.9938881,45.6225331 76.7765832,45.6177467 C75.9389543,44.044919 75.0553756,42.4969809 74.2177467,40.9241532 C74.1918999,42.4883652 74.2091311,44.0525773 74.2072165,45.6158321 C73.9860825,45.6215758 73.7659057,45.625405 73.545729,45.6282769 C73.5428571,43.6409426 73.5447717,41.6536082 73.5447717,39.6662739 Z" id="Path" fill="#017FC3"></path>
            <path d="M79.7700295,39.6672312 C80.4650221,39.6691458 81.1600147,39.6643594 81.8550074,39.6681885 C82.3250368,39.6672312 82.8199558,39.8012518 83.1607511,40.1420471 C83.4862297,40.4512518 83.6030191,40.9174521 83.6001473,41.3549337 C83.5982327,42.1829897 83.5972754,43.0110457 83.6001473,43.8400589 C83.6030191,44.3062592 83.4728277,44.7983063 83.1358616,45.137187 C82.7759205,45.4913844 82.2541973,45.632106 81.7592784,45.6263623 C81.0958763,45.6263623 80.4334315,45.6244477 79.7709867,45.625405 C79.7690722,43.639028 79.7700295,41.6536082 79.7700295,39.6672312 Z" id="Path" fill="#017FC3"></path>
            <path d="M87.0435199,39.6586156 C87.337408,39.6547865 87.6322533,39.6538292 87.928056,39.6538292 C88.5225331,41.6421208 89.1103093,43.632327 89.6913844,45.625405 C89.4386598,45.625405 89.1868925,45.6234904 88.9360825,45.6167894 C88.7781296,45.0136966 88.6086892,44.4134757 88.4134021,43.8218704 C87.7710604,43.8276141 87.129676,43.8256996 86.4882916,43.8228277 C86.2968336,44.4182622 86.1321797,45.0223122 85.9589102,45.6225331 C85.7243741,45.6244477 85.489838,45.6244477 85.2562592,45.6244477 C85.8574374,43.6371134 86.4528719,41.6488218 87.0435199,39.6586156 Z" id="Path" fill="#017FC3"></path>
            <path d="M90.6228277,39.6681885 C91.9850515,39.6672312 93.3472754,39.6672312 94.7094993,39.6681885 C94.7075847,39.8663476 94.7075847,40.0645066 94.708542,40.2626657 C94.14757,40.2645803 93.5875552,40.2617084 93.0275405,40.2655376 C93.0256259,42.0518409 93.0275405,43.8391016 93.0265832,45.625405 C92.7872607,45.6244477 92.5488954,45.6244477 92.3114875,45.625405 C92.3105302,43.8381443 92.3124448,42.0518409 92.3105302,40.2645803 C91.7476436,40.2626657 91.184757,40.263623 90.6228277,40.263623 C90.6218704,40.0645066 90.6218704,39.8653903 90.6228277,39.6681885 Z" id="Path" fill="#017FC3"></path>
            <path d="M96.612592,39.6672312 C96.8528719,39.6672312 97.0950663,39.6672312 97.338218,39.6672312 C97.3372607,41.6536082 97.3391753,43.639028 97.3372607,45.625405 C97.0950663,45.6244477 96.8528719,45.6244477 96.612592,45.625405 C96.6116348,43.639028 96.6116348,41.6536082 96.612592,39.6672312 Z" id="Path" fill="#017FC3"></path>
            <path d="M105.733652,39.6681885 C105.977761,39.6672312 106.223785,39.6672312 106.469809,39.6672312 C107.303608,41.1625184 108.130707,42.6606775 108.960677,44.1588365 C108.971208,42.6616348 108.961635,41.164433 108.965464,39.6672312 C109.187555,39.6672312 109.410604,39.6672312 109.633652,39.6681885 C109.633652,41.6536082 109.633652,43.639028 109.633652,45.6244477 C109.41539,45.6244477 109.197128,45.6244477 108.980781,45.6244477 C108.124006,44.0468336 107.244256,42.4826215 106.398012,40.9002209 C106.380781,42.4740059 106.394183,44.0477909 106.390353,45.6225331 C106.171134,45.6234904 105.951915,45.6244477 105.73461,45.6263623 C105.733652,43.6399853 105.733652,41.6536082 105.733652,39.6681885 Z" id="Path" fill="#017FC3"></path>
            <path d="M62.9025773,40.1966127 C63.4999264,40.085567 64.2408689,40.3804124 64.3806333,41.0217968 C64.5041237,41.7311487 64.4122239,42.457732 64.4418999,43.173785 C64.4418999,43.7433726 64.49838,44.4498527 63.9881443,44.8365979 C63.4061119,45.2482327 62.4124448,45.166863 62.0515464,44.4977172 C61.8284978,44.0602356 61.9223122,43.5538292 61.9041237,43.0828424 C61.9213549,42.4443299 61.8677467,41.8019882 61.9318851,41.1653903 C61.9902798,40.6666421 62.4038292,40.2530928 62.9025773,40.1966127 Z" id="Path" fill="#FEFFFF"></path>
            <path d="M101.282253,40.1927835 C101.905449,40.0846097 102.672239,40.4167894 102.764138,41.1022091 C102.806259,42.0173785 102.768925,42.9373343 102.782327,43.8544183 C102.81296,44.3579529 102.498012,44.8748895 102.002135,45.0165685 C101.526362,45.1333579 100.946244,45.1065538 100.587261,44.7332106 C100.342194,44.4919735 100.271355,44.1368189 100.270398,43.8065538 C100.263697,43.1134757 100.271355,42.4213549 100.267526,41.7292342 C100.266568,41.3645066 100.275184,40.9720177 100.489617,40.6608984 C100.664801,40.3928571 100.972091,40.2396907 101.282253,40.1927835 Z" id="Path" fill="#FEFFFF"></path>
            <path d="M80.5310751,40.2626657 C81.0614138,40.2846834 81.6051546,40.2004418 82.1240059,40.3421208 C82.5624448,40.461782 82.853461,40.9050074 82.8429308,41.3520619 C82.8496318,42.1820324 82.8438881,43.0129602 82.8458027,43.8429308 C82.866863,44.2986009 82.6131811,44.7829897 82.1613402,44.9284978 C81.6357879,45.1017673 81.0700295,44.9907216 80.5272459,45.0213549 C80.5301178,43.4351252 80.5013991,41.8479381 80.5310751,40.2626657 Z" id="Path" fill="#FEFFFF"></path>
            <path d="M86.6337997,43.2446244 C86.9114138,42.2969072 87.166053,41.3434462 87.476215,40.4062592 C87.7050074,41.3616348 88.0142121,42.2949926 88.2602356,43.2455817 C87.7174521,43.2484536 87.1756259,43.2503682 86.6337997,43.2446244 Z" id="Path" fill="#FEFFFF"></path>
            <path d="M26.6461708,43.3106775 C27.6666421,42.8502209 28.7062592,42.1810751 29.8741532,42.3141384 C30.1086892,42.382106 30.572975,42.4242268 30.5107511,42.7592784 C30.2723859,43.0139175 29.9516937,43.1689985 29.6750368,43.3767305 C28.3932253,44.2842415 26.9879234,45.0424153 25.4677467,45.4645803 C24.6004418,45.7307069 23.6862297,45.7900589 22.7835052,45.7862297 C22.1306333,45.7584683 21.4193667,45.6866716 20.8928571,45.2578056 C20.4180412,44.8748895 20.3299705,44.133947 20.6583211,43.6294551 C21.1934462,42.7793814 22.3431517,42.4031664 23.2937408,42.6712077 C23.5349779,42.7200295 23.6938881,42.9153166 23.8460972,43.091458 C23.3655376,43.4322533 22.7002209,43.3834315 22.2627393,43.7979381 C22.0674521,43.9549337 22.1545655,44.2784978 22.3900589,44.3426362 C22.8859352,44.5197349 23.422975,44.384757 23.9226804,44.2928571 C24.8627393,44.0669367 25.7530191,43.675405 26.6461708,43.3106775 Z" id="Path" fill="#69C2CE"></path>
        </g>
    </g>
</svg>