<svg xmlns="http://www.w3.org/2000/svg" xmlns:xlink="http://www.w3.org/1999/xlink" width="190.466" height="63.884" viewBox="0 0 190.466 63.884">
  <defs>
    <clipPath id="clip-path">
      <rect id="Rectangle_11352" data-name="Rectangle 11352" width="190.466" height="63.884" fill="none"/>
    </clipPath>
  </defs>
  <g id="Group_12358" data-name="Group 12358" transform="translate(0 0)">
    <g id="Group_12236" data-name="Group 12236" transform="translate(0 0)" clip-path="url(#clip-path)">
      <path id="Path_75477" data-name="Path 75477" d="M47.891,31.915a2.937,2.937,0,0,0,2.23-2.363,18.454,18.454,0,0,1,.09-2.468c.152-.224.022-.509-.022-.711a1.05,1.05,0,0,1,.13-.679c.109-.177.065-3.468.177-4.417s.352-2.335-.508-2.335a2.433,2.433,0,0,0-2.273,2.005c-.176,1.5-.508,4.235-.595,5.188s-.332,4.366-.375,5.008.595.924,1.145.771m3.422-16.9c.463-.725.919-1.119.816-2.054-.021-.2-.465-.485-.973-.485s-2.49.643-2.424,2.318,2.117.949,2.581.222m20.344,8.451c-.329-.8-1.611-.905-2.164-.8a6.709,6.709,0,0,0-2.227,1.016,4.822,4.822,0,0,1-2.56,1.014c-.661-.088-.816-1.3-.881-1.941s-.068-4.389,0-4.766a4.005,4.005,0,0,0,.152-1.21,1.933,1.933,0,0,1-.109-.844c.044-.084.2-.241.022-.4a.288.288,0,0,1-.065-.394c.043-.089-.021-.2-.113-.307s.092-.706-.485-1.04a2.093,2.093,0,0,0-1.964-.044,4.06,4.06,0,0,0-1.74,1.1c-.552.527-1.107,1.367-1.811,1.431s-.685-.176-.861-.176-.22.132-.418.132a2.1,2.1,0,0,0-.529-.02,2.387,2.387,0,0,0-1.7.856c-.617.8-.8,1.153-.861,4.087s-.22,5.248-.242,6-.156,1.544.528,1.7,2.451-.53,2.56-1.258.529-.663.442-1.454-.221-.928-.134-.994.042-.131,0-.333a4.357,4.357,0,0,1,.066-1.387c.134-.159.265-.534.09-.687a.385.385,0,0,1-.022-.551.606.606,0,0,0,.11-.615c-.088-.18.022-.293.109-.445a.428.428,0,0,0,0-.462c-.087-.132.154-.089.245-.354a3.884,3.884,0,0,1,.527-1.587c.442-.575,1.3-1.543,1.855-1.659s1.169.156,1.19.619,0,2.5-.087,3.6-.248,3.947.044,4.569c.334.708.928.731.749.82-.363.183-5.118,2.8-7.037,3.946s-2.714,1.48-4.524,2.581-6.134,3.95-6.134,3.95.047-4.3.089-5.337.552-5.782.64-7.238.442-2.56-1.212-2.6-1.9.989-1.965,1.587-.483,8.757-1.037,10.059a2.316,2.316,0,0,1-2.272,1.632c-.574-.156-.906-1.106-.882-1.52s.132-2.583.219-2.783a8.439,8.439,0,0,1,.2-1.717A6.99,6.99,0,0,1,38.8,26.439c.883-.725,1.3-1.741.906-2.356s-.747-.353-.864-.323A4.892,4.892,0,0,0,35.731,25.9a7.609,7.609,0,0,0-1.309,2.866c-.234.962-.859,6.055-.4,8.251s4.156,1.649,5.092.934,1.2-.608,1.2-.608l.044,1.884s-5.09,3.757-6.992,5.164-9.194,7.289-10.585,8.546a75.177,75.177,0,0,0-6.264,6.112,1.72,1.72,0,0,0,.264,2.493,2,2,0,0,0,2.448.023c.928-.836,7.634-7.988,9.974-9.906s9.179-7.5,9.905-7.989,1.106-.771,1.192-.707.111,7.679.044,9.244-.286,8.234-.244,9.07.333,2.628,2.187,2.6,2.073-1.5,1.961-1.523-.064-.221.069-.394.153-.33-.022-.489-.333-.415-.221-.6.33-.571.174-.724-.5,0-.526-.357.461-.816.308-1.014,0-.839-.266-.88-.311-.529-.2-.686.243-.238.109-.4a1.679,1.679,0,0,1-.286-.815c.021-.18-.022-.224-.111-.421s-.086-.511.025-.6-.067-.088-.179-.285.154-.379.179-.47-.2-.193-.2-.346.352-.2.352-.4-.438-.507-.416-.64.416-.353.394-.643-.24-.262-.24-.37.24-.048.219-.2-.2-.112-.2-.33a5.736,5.736,0,0,1,.132-.751c.044-.262.044-8.4.108-9.09s.243-1.013.444-1.149,8.869-5.912,12.619-7.853A101.364,101.364,0,0,1,66.381,27.7a16.192,16.192,0,0,0,4.46-2.005,1.942,1.942,0,0,0,.816-2.23M25.993,31.473c-.133,1.7-.4,7.316-.416,8.441s-.1,2.036.774,2.125A2.941,2.941,0,0,0,29.1,39.5c.132-1.631.088-4.273.37-5.638a3.743,3.743,0,0,1,1.515-2.8c1.024-.762,2.046-1.221,1.9-2.186s-.741-1.513-1.259-1.364-2.065.962-2.5,1.02a5,5,0,0,0-1.8.448,2.693,2.693,0,0,0-1.333,2.5m-3.027.606a.817.817,0,0,0-.742-.593,3.436,3.436,0,0,0-2.761,2.819c-.223,2-.788,10.481-.608,10.892s.488.492.993.432a2.922,2.922,0,0,0,2.05-1.721,38.038,38.038,0,0,0,.311-3.916c.134-1.043.564-3.638.668-4.705s.267-1.353.178-1.574.046-1.292-.088-1.634m1.646-6.888c.151-1.1-.266-1.558-.86-1.588-.443-.019-2.507,1.173-2.566,2.391s.414,1.335.8,1.352,2.482-1.054,2.628-2.155m-8.533,9.576c-.063-.255.158-.537.251-.856a22.3,22.3,0,0,1,.415-2.537c.249-.692,1.073-4.5,1.487-5.164s.6-.758.7-1.332a9.3,9.3,0,0,1,.224-2.057,7.77,7.77,0,0,0,.539-1.424c.033-.255.381-.35.381-.791a10.22,10.22,0,0,1,.411-1.966c.126-.41.508-1.557.667-1.934a20.755,20.755,0,0,1,.916-2.311,9,9,0,0,0,.572-1.683,39,39,0,0,1,2.343-4.97,23.175,23.175,0,0,1,2.06-2.406c.412-.442.508-.191.6-.506a8.241,8.241,0,0,1,.536-1.139A2.618,2.618,0,0,0,27.231.422a2.517,2.517,0,0,0-3.3.414c-.572.728-1.17.694-2.695,5.225s-3.422,9.19-4.085,11.44-3.2,10.9-3.74,14.509-1.328,8.237-1.552,9.692-.285,1.774-.477,1.808-.253-.761-.411-1.013.033-2.315-.188-2.349-.349-.506-.349-.854.286-.605.222-.887-.363-.524-.394-.809a5.393,5.393,0,0,0-.144-1c-.1-.285.094-.6-.061-.759s-.035-.859-.318-1.332a17.568,17.568,0,0,1-.636-3.9c-.059-.927-.475-1.343-.505-2.37a25.042,25.042,0,0,0-.727-4.12,1.521,1.521,0,0,0-1.523-1.108c-.982-.064-1.677.35-2.249,2.377S.331,36.759.077,37.681A1.134,1.134,0,0,0,.8,39.231a1.727,1.727,0,0,0,2.06-.854c.255-.792,1.65-4.848,1.872-5.262a10.531,10.531,0,0,0,.569-1.074c.033-.159.538-.159.7.663s.632,2.948.729,3.774.663,4.337.823,5.48S8.6,48.705,8.632,49.34s.6,3.2.665,3.831a25.969,25.969,0,0,0,.764,3.706,1.566,1.566,0,0,0,1.264.7c.476-.035,1.365-.126,1.649-1.87s1.077-9.474,1.267-10.015a7.6,7.6,0,0,0,.508-1.55,4.317,4.317,0,0,1,.157-2.06c.316-.507.508-1.3.348-1.394a1.143,1.143,0,0,1-.124-1.109,2.992,2.992,0,0,0,.284-1.364c-.1-.381.22-.126.22-.536a8.261,8.261,0,0,1,.192-1.5,2.546,2.546,0,0,1,.286-.721.871.871,0,0,0-.033-.693" transform="translate(0 0)" fill="#fff"/>
      <path id="Path_75478" data-name="Path 75478" d="M86.47,14.551h1.65V26.942h6.529v1.489H86.47Z" transform="translate(-3.539 -0.596)" fill="#fff"/>
      <rect id="Rectangle_11348" data-name="Rectangle 11348" width="1.646" height="13.881" transform="translate(99.013 13.954)" fill="#fff"/>
      <path id="Path_75479" data-name="Path 75479" d="M116.713,14.08h.158l4.783,11.276L126.46,14.08h.155l2.746,14.332h-1.627l-1.765-9.567-4.217,10.04h-.216l-4.273-10-1.845,9.525h-1.527Z" transform="translate(-4.661 -0.577)" fill="#fff"/>
      <rect id="Rectangle_11349" data-name="Rectangle 11349" width="1.649" height="13.881" transform="translate(133.287 13.954)" fill="#fff"/>
      <path id="Path_75480" data-name="Path 75480" d="M153.917,16.043h-4.9V14.551h11.472v1.492h-4.9V28.432h-1.667Z" transform="translate(-6.099 -0.596)" fill="#fff"/>
      <path id="Path_75481" data-name="Path 75481" d="M169.254,14.551h7.63v1.394h-6.02v4.528h5.2v1.411h-5.2v5.058h6.1v1.489h-7.707Z" transform="translate(-6.927 -0.596)" fill="#fff"/>
      <path id="Path_75482" data-name="Path 75482" d="M190.09,26.9c4.08,0,6.334-2.1,6.334-5.412s-2.254-5.432-6.334-5.432h-1.706V26.9Zm-3.335-12.354H189.8c5.353,0,8.313,2.788,8.313,6.942a6.482,6.482,0,0,1-3.432,5.9,9.321,9.321,0,0,1-4.882,1.037h-3.041Z" transform="translate(-7.644 -0.596)" fill="#fff"/>
      <path id="Path_75483" data-name="Path 75483" d="M86.47,39.087H94.1v1.391H88.082v4.528h5.2V46.42h-5.2v5.062h6.1V52.97H86.47Z" transform="translate(-3.539 -1.6)" fill="#fff"/>
      <path id="Path_75484" data-name="Path 75484" d="M106.795,51.441c4.079,0,6.333-2.1,6.333-5.412s-2.254-5.432-6.333-5.432H105.09V51.441Zm-3.332-12.354H106.5c5.351,0,8.313,2.784,8.313,6.942a6.482,6.482,0,0,1-3.43,5.9,9.311,9.311,0,0,1-4.884,1.043h-3.039Z" transform="translate(-4.235 -1.6)" fill="#fff"/>
      <rect id="Rectangle_11350" data-name="Rectangle 11350" width="1.646" height="13.884" transform="translate(118.759 37.486)" fill="#fff"/>
      <path id="Path_75485" data-name="Path 75485" d="M138.253,40.576h-4.9V39.086h11.472v1.489h-4.9v12.4h-1.667Z" transform="translate(-5.458 -1.6)" fill="#fff"/>
      <rect id="Rectangle_11351" data-name="Rectangle 11351" width="1.644" height="13.884" transform="translate(146.839 37.486)" fill="#fff"/>
      <path id="Path_75486" data-name="Path 75486" d="M170.194,51.87c2.863,0,5.116-2.449,5.116-5.861s-2.253-5.865-5.116-5.865-5.14,2.472-5.14,5.865c0,3.373,2.274,5.861,5.14,5.861m-4.807-11.157a6.53,6.53,0,0,1,9.609.02,8.027,8.027,0,0,1,.608,9.821,6.542,6.542,0,0,1-10.217.728,7.985,7.985,0,0,1,0-10.569" transform="translate(-6.687 -1.581)" fill="#fff"/>
      <path id="Path_75487" data-name="Path 75487" d="M186.1,38.616h.216l9.291,10.864V39.067h1.611V53.4H197l-9.294-10.861V52.951H186.1Z" transform="translate(-7.617 -1.581)" fill="#fff"/>
    </g>
  </g>
</svg>
